<svg xmlns="http://www.w3.org/2000/svg" height="24" viewBox="0 -960 960 960" width="24"><path fill="#f4f4f4" d="M640-420q26 0 43-17t17-43q0-26-17-43t-43-17q-26 0-43 17t-17 43q0 26 17 43t43 17ZM200-200v-560 560Zm0 80q-33 0-56.5-23.5T120-200v-560q0-33 23.5-56.5T200-840h560q33 0 56.5 23.5T840-760v100h-80v-100H200v560h560v-100h80v100q0 33-23.5 56.5T760-120H200Zm320-160q-33 0-56.5-23.5T440-360v-240q0-33 23.5-56.5T520-680h280q33 0 56.5 23.5T880-600v240q0 33-23.5 56.5T800-280H520Zm280-80v-240H520v240h280Z"/></svg>